<svg data-v-fde0c5aa="" xmlns="http://www.w3.org/2000/svg" viewBox="0 0 300 300" class="iconAbove"><!----><defs data-v-fde0c5aa=""><!----></defs><rect data-v-fde0c5aa="" fill="#BEB8AF" x="0" y="0" width="300px" height="300px" class="logo-background-square"></rect><defs data-v-fde0c5aa=""><!----></defs><g data-v-fde0c5aa="" id="5c1d5584-f4a3-4f94-a78b-150d2a3c3748" fill="#424647" transform="matrix(7.540127460592939,0,0,7.540127460592939,92.54422601776797,155.49383598487918)"><path d="M6.29 5.98L6.29 5.98Q5.82 5.81 4.97 5.81L4.97 5.81L4.97 5.81Q3.43 5.81 2.82 6.86L2.82 6.86L2.82 6.86Q2.21 7.91 2.21 9.37L2.21 9.37L2.21 9.37Q2.21 10.91 2.79 11.94L2.79 11.94L2.79 11.94Q3.37 12.96 4.76 12.96L4.76 12.96L4.76 12.96Q5.42 12.96 5.85 12.80L5.85 12.80L5.85 10.56L4.66 10.26L4.66 9.67L8.39 9.67L8.39 10.28L7.49 10.54L7.49 13.27L7.49 13.27Q7 13.55 6.30 13.71L6.30 13.71L6.30 13.71Q5.60 13.86 4.82 13.86L4.82 13.86L4.82 13.86Q2.55 13.86 1.51 12.61L1.51 12.61L1.51 12.61Q0.48 11.37 0.48 9.37L0.48 9.37L0.48 9.37Q0.48 7.39 1.56 6.16L1.56 6.16L1.56 6.16Q2.65 4.93 4.96 4.93L4.96 4.93L4.96 4.93Q5.61 4.93 6.34 5.04L6.34 5.04L6.34 5.04Q7.07 5.15 7.50 5.33L7.50 5.33L7.34 7.35L6.64 7.35L6.29 5.98ZM9.16 7.43L9.16 7.43Q9.16 6.24 9.92 5.59L9.92 5.59L9.92 5.59Q10.68 4.93 12.08 4.93L12.08 4.93L12.08 4.93Q13.24 4.93 14.46 5.31L14.46 5.31L14.31 7.27L13.65 7.27L13.34 5.96L13.34 5.96Q13.16 5.91 12.81 5.86L12.81 5.86L12.81 5.86Q12.46 5.81 12.21 5.81L12.21 5.81L12.21 5.81Q11.48 5.81 11.03 6.11L11.03 6.11L11.03 6.11Q10.58 6.41 10.58 7.04L10.58 7.04L10.58 7.04Q10.58 7.56 10.90 7.89L10.90 7.89L10.90 7.89Q11.21 8.22 11.83 8.48L11.83 8.48L13.19 9.04L13.19 9.04Q14.01 9.37 14.38 9.91L14.38 9.91L14.38 9.91Q14.76 10.46 14.76 11.30L14.76 11.30L14.76 11.30Q14.76 12.49 13.93 13.17L13.93 13.17L13.93 13.17Q13.10 13.86 11.54 13.86L11.54 13.86L11.54 13.86Q10.92 13.86 10.23 13.75L10.23 13.75L10.23 13.75Q9.55 13.64 9.00 13.43L9.00 13.43L9.21 11.54L9.90 11.54L10.15 12.75L10.15 12.75Q10.88 12.96 11.55 12.96L11.55 12.96L11.55 12.96Q12.33 12.96 12.79 12.64L12.79 12.64L12.79 12.64Q13.24 12.32 13.24 11.76L13.24 11.76L13.24 11.76Q13.24 11.24 12.96 10.92L12.96 10.92L12.96 10.92Q12.68 10.60 12.03 10.32L12.03 10.32L10.64 9.74L10.64 9.74Q10.00 9.48 9.58 8.91L9.58 8.91L9.58 8.91Q9.16 8.34 9.16 7.43L9.16 7.43Z"></path></g><defs data-v-fde0c5aa=""><!----></defs><g data-v-fde0c5aa="" id="c861dfd8-c062-4da0-8c00-a48fbecdb4c1" stroke="none" fill="#BB7070" transform="matrix(1.435661887208074,0,0,1.435661887208074,363.912744935527,-253.02120681071898)"><path d="M-101.507 264.054c-.038-2.981-2.687-5.436-5.621-4.912a5.5 5.5 0 0 0-.606.146l-18.243 6.514 2.295-10.751a10.244 10.244 0 0 0-2.44-5.492l-8.299-9.54a4.618 4.618 0 0 0-3.483-1.587l-5.611-17.585c-.178-.56-15.306-16.071-15.306-16.071-.736-.726-1.905-.912-2.758-.329a2.133 2.133 0 0 0-.413 3.179l12.587 14.29c.008.166.022.333.058.502l4.567 20.744c.168.761 5.237 10.119 8.341 15.806a5.97 5.97 0 0 1-2.131 7.957l-.101.06a11.65 11.65 0 0 0-5.063 6.417c-.801 2.496-1.551 4.995-1.551 4.995l-12.476 9.169a3.64 3.64 0 0 1-1.996.704c-5.888.258-34.732 2.773-34.732 2.773-1.404.131-2.398 1.551-1.863 3.02.321.883 1.235 1.411 2.174 1.402l32.347-.294c13.776-.248 30.024-12.703 33.602-16.627a6.5 6.5 0 0 1 2.581-1.746l14.838-5.392 3.747 24.351c.145.945.782 1.794 1.704 2.049a2.404 2.404 0 0 0 3.077-2.19c-.001.001.87-24.023.775-31.562z"></path><path d="M-156.605 229.008c0 5 4.053 9.054 9.054 9.054.153 0 .302-.016.453-.023l-3.384-15.372a2.82 2.82 0 0 1-.047-.269l-1.235-1.401a9.047 9.047 0 0 0-4.841 8.011zM-138.872 231.571a9.029 9.029 0 0 0-3.087-9.673l3.087 9.673z"></path></g><!----></svg>