<svg data-v-fde0c5aa="" xmlns="http://www.w3.org/2000/svg" viewBox="0 0 300 300" class="iconAbove"><!----><defs data-v-fde0c5aa=""><!----></defs><rect data-v-fde0c5aa="" fill="#19150F" x="0" y="0" width="300px" height="300px" class="logo-background-square"></rect><defs data-v-fde0c5aa=""><!----></defs><g data-v-fde0c5aa="" id="fc78289a-9301-4c26-aad6-e469af28d448" fill="#CDD3D4" transform="matrix(7.540127460592939,0,0,7.540127460592939,92.54422601776797,155.49383598487918)"><path d="M6.29 5.98L6.29 5.98Q5.82 5.81 4.97 5.81L4.97 5.81L4.97 5.81Q3.43 5.81 2.82 6.86L2.82 6.86L2.82 6.86Q2.21 7.91 2.21 9.37L2.21 9.37L2.21 9.37Q2.21 10.91 2.79 11.94L2.79 11.94L2.79 11.94Q3.37 12.96 4.76 12.96L4.76 12.96L4.76 12.96Q5.42 12.96 5.85 12.80L5.85 12.80L5.85 10.56L4.66 10.26L4.66 9.67L8.39 9.67L8.39 10.28L7.49 10.54L7.49 13.27L7.49 13.27Q7 13.55 6.30 13.71L6.30 13.71L6.30 13.71Q5.60 13.86 4.82 13.86L4.82 13.86L4.82 13.86Q2.55 13.86 1.51 12.61L1.51 12.61L1.51 12.61Q0.48 11.37 0.48 9.37L0.48 9.37L0.48 9.37Q0.48 7.39 1.56 6.16L1.56 6.16L1.56 6.16Q2.65 4.93 4.96 4.93L4.96 4.93L4.96 4.93Q5.61 4.93 6.34 5.04L6.34 5.04L6.34 5.04Q7.07 5.15 7.50 5.33L7.50 5.33L7.34 7.35L6.64 7.35L6.29 5.98ZM9.16 7.43L9.16 7.43Q9.16 6.24 9.92 5.59L9.92 5.59L9.92 5.59Q10.68 4.93 12.08 4.93L12.08 4.93L12.08 4.93Q13.24 4.93 14.46 5.31L14.46 5.31L14.31 7.27L13.65 7.27L13.34 5.96L13.34 5.96Q13.16 5.91 12.81 5.86L12.81 5.86L12.81 5.86Q12.46 5.81 12.21 5.81L12.21 5.81L12.21 5.81Q11.48 5.81 11.03 6.11L11.03 6.11L11.03 6.11Q10.58 6.41 10.58 7.04L10.58 7.04L10.58 7.04Q10.58 7.56 10.90 7.89L10.90 7.89L10.90 7.89Q11.21 8.22 11.83 8.48L11.83 8.48L13.19 9.04L13.19 9.04Q14.01 9.37 14.38 9.91L14.38 9.91L14.38 9.91Q14.76 10.46 14.76 11.30L14.76 11.30L14.76 11.30Q14.76 12.49 13.93 13.17L13.93 13.17L13.93 13.17Q13.10 13.86 11.54 13.86L11.54 13.86L11.54 13.86Q10.92 13.86 10.23 13.75L10.23 13.75L10.23 13.75Q9.55 13.64 9.00 13.43L9.00 13.43L9.21 11.54L9.90 11.54L10.15 12.75L10.15 12.75Q10.88 12.96 11.55 12.96L11.55 12.96L11.55 12.96Q12.33 12.96 12.79 12.64L12.79 12.64L12.79 12.64Q13.24 12.32 13.24 11.76L13.24 11.76L13.24 11.76Q13.24 11.24 12.96 10.92L12.96 10.92L12.96 10.92Q12.68 10.60 12.03 10.32L12.03 10.32L10.64 9.74L10.64 9.74Q10.00 9.48 9.58 8.91L9.58 8.91L9.58 8.91Q9.16 8.34 9.16 7.43L9.16 7.43Z"></path></g><defs data-v-fde0c5aa=""><!----></defs><g data-v-fde0c5aa="" id="e159e0b3-b0b6-4935-b1a8-72d22c870422" stroke="none" fill="#520707" transform="matrix(1.7035213190579173,0,0,1.7035213190579173,-371.27549612526997,-582.3150844884433)"><path d="M343.091 439.195l-3.274-30.269c-.075-1.247-.101-1.352-.44-2.3l-7.446-18.707c1.361.055 2.196-.92 2.196-5.211-.342-2.54-1.993-9.056-5.729-11.053 0 0-9.634-6.344-18.328-6.344-9.634 0-19.268 5.874-19.268 5.874-1.29 1.355-2.427 2.543-3.292 3.8l-22.057 25.457a4.576 4.576 0 0 0-.597 4.274v.003l7.644 33.31c-.188-.004-.372-.01-.568-.01-5.154 0-10.933 2.83-10.933 4.582 0 1.752 5.779 1.762 10.934 1.762 2.128 0 3.81-.245 5.06-.652.019-.003.038-.001.057-.005a3.012 3.012 0 0 0 1.268-.58c.894-.536 1.348-1.206 1.348-1.935 0-.129-.018-.255-.046-.38a3.876 3.876 0 0 0-.026-1.269l-4.876-35.407 19.731-18.087c3.374-2.203 12.301-7.747 15.621-6.992 1.355.308 4.917 1.93 8.427 3.623l15.173 26.82c.05.088.083.184.097.284l4.359 30.247c.083.659.177 1.235.357 1.686.235 1.103 1.305 1.982 3.81 2.168 3.017.223 7.608-.462 8.551-1.523 1.185-1.334-4.736-2.943-7.753-3.166z"></path><path d="M333.295 388.642l6.187 15.545a8.535 8.535 0 0 0-1.653-16.907 8.453 8.453 0 0 0-4.136 1.077 2.23 2.23 0 0 1-.398.285z"></path></g><!----></svg>